%
M48
M72
T01C0.01378
T02C0.02362
T03C0.03500
T04C0.03600
T05C0.03937
T06C0.04000
T07C0.05000
T08C0.05512
T09C0.07087
T10C0.08200
T11C0.11811
T12C0.12795
T13C0.13000
T14C0.15197
%
T01
X307300Y116800
X365800Y122300
X416300Y245800
X416800Y269300
T02
X144300Y121800
X160800Y142800
X183800Y143300
X209800Y143800
X250800Y133300
X185300Y186800
X210300Y189800
X242300Y233300
X229300Y239800
X217800Y236800
X228300Y257800
X228300Y264300
X241800Y288300
X233300Y301300
X257300Y287300
X284800Y324300
X253300Y347800
X233800Y341800
X230300Y368300
X202800Y343800
X200300Y315800
X204800Y303800
X153800Y218800
X314300Y155300
X406800Y119300
X445300Y237800
X440800Y261800
X321300Y276300
X250800Y370300
T03
X241583Y300891
X259300Y300891
X259300Y275300
X241583Y275300
X301800Y271800
X301800Y261800
X301800Y251800
X301800Y241800
X301800Y231800
X301800Y221800
X301800Y211800
X301800Y201800
X301800Y191800
X301800Y181800
X301800Y171800
X301800Y161800
X301800Y151800
X331800Y151800
X331800Y161800
X331800Y171800
X331800Y181800
X331800Y191800
X331800Y201800
X331800Y211800
X331800Y221800
X331800Y231800
X331800Y241800
X331800Y251800
X331800Y261800
X331800Y271800
X331800Y281800
X301800Y281800
T04
X211800Y275800
X221800Y275800
X269800Y136300
X269800Y126300
T05
X162292Y333316
X171308Y333316
X179221Y352292
X175206Y359300
X183237Y359300
X187253Y352292
X191269Y359300
X199300Y359300
X195284Y352292
X203316Y352292
X207292Y333316
X216308Y333316
X171292Y117284
X180308Y117284
X184284Y98308
X188300Y91300
X192316Y98308
X196331Y91300
X204363Y91300
X208379Y98308
X200347Y98308
X212394Y91300
X216292Y117284
X225308Y117284
X323989Y102308
X335800Y102308
X347611Y102308
X432316Y233292
X432316Y242308
X451292Y246284
X458300Y250300
X451292Y254316
X458300Y258331
X451292Y262347
X458300Y266363
X451292Y270379
X458300Y274394
X432316Y287308
X432316Y278292
T06
X194800Y294300
X194800Y284300
X194800Y274300
X194800Y264300
X194800Y254300
X194800Y244300
X276800Y241800
X286800Y241800
X286800Y231800
X276800Y231800
X276800Y221800
X286800Y221800
X286800Y211800
X276800Y211800
X276800Y201800
X286800Y201800
X286800Y191800
X276800Y191800
X276800Y181800
X286800Y181800
X286800Y171800
X276800Y171800
X276800Y161800
X286800Y161800
X286800Y151800
X276800Y151800
X279800Y105800
X279800Y95800
X269800Y95800
X269800Y105800
X289800Y105800
X289800Y95800
X346800Y151800
X346800Y161800
X346800Y171800
X346800Y181800
X356800Y181800
X356800Y171800
X356800Y161800
X356800Y151800
X356800Y191800
X356800Y201800
X356800Y211800
X346800Y211800
X346800Y201800
X346800Y191800
X346800Y221800
X346800Y231800
X346800Y241800
X356800Y241800
X356800Y231800
X356800Y221800
X356800Y251800
X356800Y261800
X356800Y271800
X356800Y281800
X346800Y281800
X346800Y271800
X346800Y261800
X346800Y251800
X286800Y251800
X276800Y251800
X276800Y261800
X286800Y261800
X286800Y271800
X276800Y271800
X276800Y281800
X286800Y281800
X318800Y314300
X318800Y324300
X328800Y324300
X328800Y314300
X338800Y314300
X338800Y324300
X348800Y324300
X348800Y314300
X358800Y314300
X368800Y314300
X368800Y324300
X358800Y324300
X378800Y324300
X378800Y314300
X388800Y314300
X388800Y324300
X398800Y324300
X398800Y314300
X408800Y314300
X408800Y324300
X418800Y324300
X418800Y314300
X428800Y314300
X428800Y324300
X438800Y324300
X438800Y314300
X448800Y314300
X448800Y324300
X448800Y338300
X448800Y348300
X438800Y348300
X438800Y338300
X428800Y338300
X428800Y348300
X418800Y348300
X418800Y338300
X408800Y338300
X408800Y348300
X398800Y348300
X398800Y338300
X388800Y338300
X388800Y348300
X378800Y348300
X378800Y338300
X368800Y338300
X358800Y338300
X358800Y348300
X368800Y348300
X369300Y361800
X369300Y371800
X359300Y371800
X359300Y361800
X349300Y361800
X349300Y371800
X339300Y371800
X339300Y361800
X329300Y361800
X329300Y371800
X319300Y371800
X319300Y361800
X318800Y348300
X318800Y338300
X328800Y338300
X328800Y348300
X338800Y348300
X338800Y338300
X348800Y338300
X348800Y348300
X379300Y361800
X389300Y361800
X389300Y371800
X379300Y371800
X399300Y371800
X399300Y361800
X409300Y361800
X409300Y371800
X419300Y371800
X419300Y361800
X429300Y361800
X429300Y371800
X439300Y371800
X439300Y361800
X449300Y361800
X449300Y371800
X443300Y198300
X433300Y198300
T07
X136800Y321800
X136800Y291800
X411300Y105800
X441300Y105800
T08
X137824Y229950
X137824Y213650
X451276Y155150
X451276Y171450
T09
X157292Y355796
X221308Y355796
X166292Y94804
X230308Y94804
X454796Y228292
X454796Y292308
T10
X106800Y306800
X426300Y75800
T11
X335800Y85300
T12
X164300Y369300
X214300Y369300
X173300Y81300
X223300Y81300
X468300Y235300
X468300Y285300
T13
X111800Y366800
X111800Y81800
X476300Y80300
X476800Y366800
T14
X108808Y221800
X480292Y163300
M30
